<?xml version="1.0" encoding="utf-8"?>
<!-- Generator: Adobe Illustrator 23.1.0, SVG Export Plug-In . SVG Version: 6.00 Build 0)  -->
<svg version="1.1"
	 id="svg8" xmlns:cc="http://creativecommons.org/ns#" xmlns:dc="http://purl.org/dc/elements/1.1/" xmlns:inkscape="http://www.inkscape.org/namespaces/inkscape" xmlns:rdf="http://www.w3.org/1999/02/22-rdf-syntax-ns#" xmlns:sodipodi="http://sodipodi.sourceforge.net/DTD/sodipodi-0.dtd" xmlns:svg="http://www.w3.org/2000/svg"
	 xmlns="http://www.w3.org/2000/svg" xmlns:xlink="http://www.w3.org/1999/xlink" x="0px" y="0px" viewBox="0 0 24 24"
	 style="enable-background:new 0 0 24 24;" xml:space="preserve">
<style type="text/css">
	.st0{opacity:0.999;fill:#FFFFFF;enable-background:new    ;}
</style>
<g id="layer1">
	<path id="path1361" class="st0" d="M12,1.5C6.2,1.5,1.5,6.2,1.5,12c0,5.8,4.7,10.5,10.5,10.5S22.5,17.8,22.5,12
		C22.5,6.2,17.8,1.5,12,1.5z M7.1,6.8h9.8c0.6,0,1,0.4,1,1c0,0.6-0.4,1-1,1H7.1c-0.6,0-1-0.4-1-1C6.1,7.3,6.5,6.8,7.1,6.8z M7.1,11
		h9.8c0.6,0,1,0.4,1,1c0,0.6-0.4,1-1,1c0,0,0,0,0,0H7.1c-0.6,0-1-0.4-1-1c0,0,0,0,0,0C6.1,11.5,6.5,11,7.1,11z M7.1,15.2h9.8
		c0.6,0,1,0.4,1,1c0,0.6-0.4,1-1,1c0,0,0,0,0,0H7.1c-0.6,0-1-0.4-1-1c0,0,0,0,0,0C6.1,15.6,6.5,15.2,7.1,15.2z"/>
</g>
</svg>
