<?xml version="1.0" encoding="utf-8"?>
<!-- Generator: Adobe Illustrator 23.1.0, SVG Export Plug-In . SVG Version: 6.00 Build 0)  -->
<svg version="1.1" id="Capa_1" xmlns="http://www.w3.org/2000/svg" xmlns:xlink="http://www.w3.org/1999/xlink" x="0px" y="0px"
	 viewBox="0 0 500 500" style="enable-background:new 0 0 500 500;" xml:space="preserve">
<path d="M446.4,0H53.6C24,0,0,24,0,53.6v392.9C0,476,24,500,53.6,500h392.9c29.6,0,53.6-24,53.6-53.6V53.6C500,24,476,0,446.4,0z
	 M309.5,428.2c-9.4,1.7-12.8-4.1-12.8-8.9c0-6,0.2-36.8,0.2-61.7c0-17.4-5.8-28.5-12.6-34.3c41.3-4.6,84.8-10.3,84.8-81.6
	c0-20.3-7.3-30.5-19.1-43.5c1.9-4.8,8.3-24.6-1.9-50.2c-15.5-4.8-51,20-51,20c-14.7-4.1-30.7-6.3-46.4-6.3s-31.7,2.1-46.4,6.3
	c0,0-35.5-24.8-51-20c-10.2,25.6-3.9,45.3-1.9,50.2c-11.8,13.1-17.4,23.2-17.4,43.5c0,71,41.6,77,82.9,81.6
	c-5.4,4.8-10.2,13.1-11.8,24.9c-10.6,4.8-37.7,13.1-53.9-15.5c-10.2-17.6-28.5-19.1-28.5-19.1c-18.1-0.2-1.2,11.4-1.2,11.4
	c12.1,5.6,20.5,27,20.5,27c10.8,33.1,62.6,22,62.6,22c0,15.5,0.2,40.7,0.2,45.3c0,4.8-3.3,10.6-12.8,8.9
	c-73.7-24.7-125.2-94.8-125.2-176.7c0-102.5,78.3-180.2,180.8-180.2S433,149.1,433,251.6C433.1,333.5,383.1,403.7,309.5,428.2z
	 M200,360c-2.1,0.4-4.1-0.4-4.4-1.9c-0.2-1.7,1.2-3.1,3.3-3.6c2.1-0.2,4.1,0.7,4.4,2.1C203.7,358.1,202.2,359.6,200,360L200,360z
	 M189.4,359c0,1.5-1.7,2.7-3.9,2.7c-2.5,0.2-4.1-1-4.1-2.7c0-1.5,1.7-2.7,3.9-2.7C187.4,356.1,189.4,357.4,189.4,359z M174.1,357.8
	c-0.4,1.5-2.7,2.1-4.6,1.5c-2.1-0.4-3.6-2.1-3.1-3.6c0.4-1.5,2.7-2.1,4.6-1.7C173.2,354.7,174.7,356.4,174.1,357.8L174.1,357.8z
	 M160.4,351.8c-1,1.2-3.1,1-4.8-0.7c-1.7-1.5-2.1-3.6-1-4.6c1-1.2,3.1-1,4.8,0.7C160.8,348.7,161.4,350.9,160.4,351.8z M150.2,341.6
	c-1,0.7-2.9,0-4.1-1.7c-1.2-1.7-1.2-3.6,0-4.4c1.2-1,3.1-0.2,4.1,1.5C151.5,338.7,151.5,340.7,150.2,341.6z M143,330.8
	c-1,1-2.7,0.4-3.9-0.7c-1.2-1.5-1.5-3.1-0.4-3.9c1-1,2.7-0.4,3.9,0.7C143.7,328.3,144,330,143,330.8z M135.5,322.5
	c-0.4,1-1.9,1.2-3.1,0.4c-1.5-0.7-2.1-1.9-1.7-2.9c0.4-0.7,1.7-1,3.1-0.4C135.3,320.4,135.9,321.7,135.5,322.5z"/>
</svg>
