<?xml version="1.0" encoding="utf-8"?>
<!-- Generator: Adobe Illustrator 23.1.0, SVG Export Plug-In . SVG Version: 6.00 Build 0)  -->
<svg version="1.1" id="Capa_1" xmlns="http://www.w3.org/2000/svg" xmlns:xlink="http://www.w3.org/1999/xlink" x="0px" y="0px"
	 viewBox="0 0 500 500" style="enable-background:new 0 0 500 500;" xml:space="preserve">
<path d="M56.8,0C25.7,0,0,25.7,0,56.8v386.4C0,474.3,25.7,500,56.8,500h386.4c31.1,0,56.8-25.7,56.8-56.8V56.8
	C500,25.7,474.3,0,443.2,0H56.8z M56.8,45.5h386.4c6.5,0,11.4,4.8,11.4,11.4v386.4c0,6.5-4.8,11.4-11.4,11.4H56.8
	c-6.5,0-11.4-4.8-11.4-11.4V56.8C45.5,50.3,50.3,45.5,56.8,45.5z M123.6,84.5c-21.6,0-39.1,17.5-39.1,39.1s17.4,39.1,39.1,39.1
	c21.5,0,39.1-17.5,39.1-39.1C162.6,102,145.1,84.5,123.6,84.5z M328.8,188.2c-32.6,0-54.3,17.8-63.2,34.8h-1.4v-29.8h-63.9v215.9
	H267V302.6c0-28.1,5.6-55.4,40.5-55.4c34.4,0,34.8,31.8,34.8,56.8v105.1h66.8V290.5C409.1,232.4,396.7,188.2,328.8,188.2z
	 M90.9,193.2v215.9h67.5V193.2H90.9z"/>
</svg>
