<?xml version="1.0" encoding="utf-8"?>
<!-- Generator: Adobe Illustrator 23.1.0, SVG Export Plug-In . SVG Version: 6.00 Build 0)  -->
<svg version="1.1" id="Capa_1" xmlns="http://www.w3.org/2000/svg" xmlns:xlink="http://www.w3.org/1999/xlink" x="0px" y="0px"
	 viewBox="0 0 512 512" style="enable-background:new 0 0 512 512;" xml:space="preserve">
<style type="text/css">
	.st0{fill:#FFFFFF;}
</style>
<g id="Edges">
</g>
<g id="Background">
	<path d="M512,445.1c0,37-30,66.9-66.9,66.9H66.9C30,512,0,482.1,0,445.1V66.9C0,29.9,30,0,66.9,0h378.1C482,0,512,29.9,512,66.9
		L512,445.1L512,445.1z"/>
</g>
<g id="Symbol">
	<path class="st0" d="M208.2,73.5l-11.9,49.4h-1.2l-12.3-49.4h-19.2l22.8,74.6v49.1h19v-51.4l22.3-72.3
		C227.6,73.5,208.2,73.5,208.2,73.5z M245.9,181.6c-1.2-1.3-1.8-3.4-1.8-5.8v-49.6c0-2.1,0.6-3.6,1.9-4.9c1.3-1.3,3-1.8,5.1-1.8
		c2.3,0,4.1,0.6,5.4,1.8c1.3,1.2,2.1,2.8,2.1,4.9v49.6c0,2.4-0.6,4.3-2.1,5.8c-1.3,1.4-3.1,2.1-5.5,2.1
		C248.9,183.7,247.2,182.9,245.9,181.6 M233.6,109.9c-4.5,4.2-6.9,9.7-6.9,16.9v47.4c0,7.7,2.2,13.8,6.6,18.5
		c4.4,4.5,10.4,6.9,17.8,6.9c7.7,0,13.7-2.3,18.2-6.6c4.3-4.4,6.6-10.6,6.6-18.5v-47.1c0-7-2.3-12.6-6.7-17
		c-4.4-4.4-10.3-6.6-17.2-6.6C244.3,103.7,238.1,105.7,233.6,109.9 M321.8,105.9v69.2c-1.5,2.1-3.4,3.6-5.2,5
		c-1.9,1.3-3.5,1.9-4.6,1.9c-1.5,0-2.8-0.4-3.5-1.4c-0.8-1-1.1-2.5-1.1-4.6v-69.9h-17v76.3c0,5.4,1,9.5,2.9,12.2
		c2.1,2.7,5,4.1,9,4.1c3.1,0,6.5-1,9.8-2.9c3.4-1.9,6.6-4.9,9.7-8.4v10.2h17v-91.2h-17v-0.3H321.8z"/>
	<g>
		<path class="st0" d="M282.9,290.4c-1.2,0-2.4,0.3-3.6,1s-2.3,1.4-3.5,2.8V351c1.3,1.5,2.7,2.7,4,3.2c1.3,0.6,2.7,1,4.1,1
			c2.1,0,3.6-0.6,4.5-1.9c1-1.2,1.4-3.4,1.4-6.3h0.1v-47.2c0-3-0.6-5.4-1.8-7C286.8,291.2,285.1,290.4,282.9,290.4z"/>
		<path class="st0" d="M345.2,291c-2.7,0-4.5,0.8-5.8,2.4s-1.8,4.3-1.8,8.2h0.1v9.3h14.9v-9.3c0-3.9-0.6-6.5-1.8-8.2
			C349.6,291.8,347.9,291,345.2,291z"/>
		<path class="st0" d="M400.3,309.1c0-22.1,0-45.4-5-66.9c-1.8-8.1-6.2-15.1-11.9-20.4l0,0c-5.8-5.3-13.2-8.8-21.3-9.6
			c-17.5-1.9-35.3-2.9-53-3.5c-17.6-0.5-35.4-0.5-53.1-0.4c-17.7,0-35.4,0-53.1,0.4c-17.7,0.5-35.5,1.5-53,3.5
			c-8.1,0.9-15.5,4.3-21.3,9.6c-5.7,5.3-10.1,12.3-11.9,20.4c-2.5,10.9-3.8,22.3-4.4,33.6c-0.6,11.5-0.6,22.8-0.6,33.8
			c0,11,0,22.3,0.6,33.7c0.6,11.5,1.8,22.8,4.4,33.6c1.8,8.1,6.2,15.1,11.9,20.4c5.8,5.3,13.2,8.8,21.3,9.6
			c17.5,1.9,35.3,2.9,53,3.5c17.6,0.5,35.4,0.5,53.1,0.4c17.7,0,35.4,0,53.1-0.4c17.7-0.5,35.5-1.5,53-3.5
			c8.1-0.9,15.5-4.3,21.3-9.6c5.8-5.3,10.1-12.3,11.9-20.4c2.5-10.9,3.8-22.3,4.4-33.6c0.6-11.2,0.6-22.7,0.6-33.7l0,0L400.3,309.1
			L400.3,309.1z M174,368.3h-19V262.6h-19.8v-17.9h58.6v17.9H174V368.3z M242.1,368.6h-17v-10.2c-3.1,3.6-6.4,6.5-9.7,8.4
			c-3.4,1.9-6.7,2.9-9.8,2.9c-4,0-6.9-1.4-9-4.1c-2.1-2.7-3-6.7-3-12.2v-76.3h17v69.9c0,2.2,0.3,3.8,1.1,4.6c0.6,1,1.8,1.4,3.4,1.4
			c1.2,0,2.8-0.6,4.6-1.9c2.1-1.3,3.8-2.9,5.3-5h0.1v-69.1h17v91.5H242.1z M307.3,349.5c0,6.5-1.3,11.5-4,14.9
			c-2.7,3.5-6.5,5.2-11.6,5.2c-3.4,0-6.3-0.8-9-2.1c-2.7-1.3-5.1-3.4-7.2-6.2v7h-17.1V244.8h17.1v39.8c2.3-2.9,4.6-5,7.2-6.4
			c2.7-1.4,5.2-2.2,7.8-2.2c5.4,0,9.5,1.9,12.4,5.9c2.8,3.9,4.2,9.5,4.2,17v50.6H307.3z M370,325v0.1h-32.4v17.2
			c0,4.9,0.4,8.2,1.7,10.1c1.1,1.8,3,2.8,5.6,2.8c2.8,0,4.9-0.9,5.9-2.4c1.1-1.5,1.7-5,1.7-10.4V336H370v6.9
			c0,9.3-2.2,16.4-6.4,21.1c-4.2,4.6-10.6,7.1-19,7.1c-7.6,0-13.6-2.4-17.9-7.5c-4.3-5.1-6.5-11.9-6.5-20.8v-41
			c0-8,2.4-14.5,7.2-19.5c4.9-5,10.9-7.5,18.6-7.5s13.6,2.3,17.8,6.9c4.2,4.5,6.3,11.2,6.3,19.9V325H370z"/>
	</g>
</g>
</svg>
