<?xml version="1.0" encoding="utf-8"?>
<!-- Generator: Adobe Illustrator 23.1.0, SVG Export Plug-In . SVG Version: 6.00 Build 0)  -->
<svg version="1.1" id="Layer_1" xmlns="http://www.w3.org/2000/svg" xmlns:xlink="http://www.w3.org/1999/xlink" x="0px" y="0px"
	 viewBox="0 0 100 100" style="enable-background:new 0 0 100 100;" xml:space="preserve">
<style type="text/css">
	.st0{fill:#E8F4FA;}
	.st1{fill:#FFFFFF;}
	.st2{fill:none;stroke:#4F4A45;stroke-linecap:round;stroke-linejoin:round;}
	.st3{fill:#00B8F0;}
	.st4{fill:#4ACFFF;}
	.st5{fill:none;stroke:#45413C;stroke-linecap:round;stroke-linejoin:round;}
	.st6{fill:#00B8F0;stroke:#45413C;stroke-linecap:round;stroke-linejoin:round;}
	.st7{fill:#FFFFFF;stroke:#45413C;stroke-linecap:round;stroke-linejoin:round;}
	.st8{fill:#FFCEBF;}
	.st9{fill:#FFB59E;}
	.st10{fill:#FFCEBF;stroke:#45413C;stroke-linecap:round;stroke-linejoin:round;}
	.st11{fill:#161001;}
	.st12{fill:#ADC4D9;stroke:#45413C;stroke-linecap:round;stroke-linejoin:round;}
	.st13{fill:#656769;stroke:#45413C;stroke-linecap:round;stroke-linejoin:round;}
	.st14{fill:#8CA4B8;}
	.st15{fill:#ADC4D9;}
	.st16{fill:none;stroke:#45413C;stroke-linejoin:round;}
	.st17{fill:#656769;}
	.st18{fill:#87898C;}
	.st19{opacity:0.15;fill:#020202;enable-background:new    ;}
	.st20{fill:#76A313;stroke:#45413C;stroke-linecap:round;stroke-linejoin:round;}
	.st21{fill:#DBDB21;stroke:#45413C;stroke-linecap:round;stroke-linejoin:round;}
	.st22{fill:#148BC6;stroke:#45413C;stroke-linecap:round;stroke-linejoin:round;}
	.st23{fill:#E8F4FA;stroke:#45413C;stroke-linejoin:round;}
	.st24{fill:#ADC4D9;stroke:#45413C;stroke-linejoin:round;}
	.st25{fill:#C0DCEB;}
	.st26{fill:#C0DCEB;stroke:#45413C;stroke-linejoin:round;}
	.st27{fill:#EDF2F4;stroke:#45413C;stroke-linejoin:round;}
	.st28{fill:#C41D10;stroke:#45413C;stroke-linecap:round;stroke-linejoin:round;}
</style>
<title>radio-host</title>
<path class="st0" d="M90,50.3c0-22.1-17.9-40-40-40c-22.1,0-40,17.9-40,40c0,5.7,1.2,11.3,3.6,16.5h72.9C88.8,61.6,90,56,90,50.3z"
	/>
<path class="st1" d="M13.6,66.8c9.1,20.1,32.8,29.1,52.9,19.9c8.8-4,15.9-11.1,19.9-19.9H13.6z"/>
<line class="st2" x1="11" y1="66.8" x2="89" y2="66.8"/>
<line class="st2" x1="6.5" y1="66.8" x2="9" y2="66.8"/>
<line class="st2" x1="91" y1="66.8" x2="93.5" y2="66.8"/>
<path class="st3" d="M54.5,43.5C63.1,43.6,70,50.6,70,59.1v7.7H39v-7.7C39,50.6,45.9,43.6,54.5,43.5z"/>
<path class="st4" d="M54.5,43.5C63.1,43.6,70,50.6,70,59.1v5.5c0-8.6-6.9-15.5-15.5-15.5S39,56.1,39,64.6v-5.5
	C39,50.6,45.9,43.6,54.5,43.5z"/>
<path class="st5" d="M54.5,43.5C63.1,43.6,70,50.6,70,59.1v7.7H39v-7.7C39,50.6,45.9,43.6,54.5,43.5z"/>
<path class="st6" d="M54.5,38.8c-6-1-13.3-1.2-12,5.5c0.6,3.1,2.1,3.1,12,8.5c9.9-5.4,11.4-5.4,12-8.5
	C67.8,37.6,60.5,37.8,54.5,38.8z"/>
<path class="st7" d="M54.5,38.8c-4.7-0.8-10.3-1.1-11.8,2.1c1.2,2.8,2.2,3.4,11.8,6.9c9.5-3.5,10.6-4.1,11.8-6.9
	C64.8,37.7,59.2,38,54.5,38.8z"/>
<path class="st5" d="M49.7,48.1c1.2,3.3,1.8,6.7,1.8,10.2"/>
<path class="st8" d="M58,40.8V45c0,0.8-0.2,1.6-0.6,2.3l-2.9,5.6l-2.9-5.6C51.2,46.6,51,45.8,51,45v-4.2H58z"/>
<path class="st9" d="M58,44.3c-2.3,0.6-4.7,0.6-7,0v-3.5h7V44.3z"/>
<path class="st5" d="M58,40.8V45c0,0.8-0.2,1.6-0.6,2.3l-2.9,5.6l-2.9-5.6C51.2,46.6,51,45.8,51,45v-4.2H58z"/>
<path class="st5" d="M59.3,48.1c-1.2,3.3-1.8,6.7-1.8,10.2"/>
<path class="st10" d="M51.5,72.3H55c1.4,0,2.5,1.1,2.5,2.5l0,0c0,1.4-1.1,2.5-2.5,2.5h-3.5l0,0V72.3L51.5,72.3z"/>
<line class="st5" x1="45" y1="66.2" x2="45" y2="57.5"/>
<path class="st6" d="M39,61.5v4.6c0,5.9,4.1,11.5,12.5,11.5v-5c0-0.6-0.4-1-1-1c-2.9,0.1-5.4-2.2-5.5-5.2c0-0.1,0-0.2,0-0.3v-4.8"/>
<path class="st10" d="M64.5,30.3v-2.5c0-5.5-4.5-10-10-10s-10,4.5-10,10v2.5c-1.1,0-2,0.9-2,2c0,1.1,0.9,2,2,2h0.1
	c0.9,5.5,6,9.2,11.4,8.3c4.3-0.7,7.7-4,8.3-8.3h0.1c1.1,0,2-0.9,2-2C66.5,31.2,65.6,30.3,64.5,30.3z"/>
<circle class="st9" cx="48.8" cy="34.6" r="1.3"/>
<circle class="st9" cx="60.3" cy="34.6" r="1.3"/>
<path class="st5" d="M57.5,37.1c-1.7,1.6-4.3,1.6-6,0"/>
<path class="st5" d="M52,31.3c-0.4-0.8-1.3-1.2-2.1-0.9c-0.4,0.2-0.7,0.5-0.9,0.9"/>
<path class="st5" d="M60,31.3c-0.4-0.8-1.3-1.2-2.1-0.9c-0.4,0.2-0.7,0.5-0.9,0.9"/>
<path class="st11" d="M53.3,15.7c-7.2,0-10.2,5.3-10.2,10.2v4.2c3,0,3-3.6,3-3.6s7.2,1.2,12-2.4c0,0,3,6,7.8,6v-4.2
	c0-6-1.3-8.4-7.2-8.4C58.7,17.5,58.1,15.7,53.3,15.7z"/>
<path d="M54.5,18.7c4.9,0,9.1,3.1,11.4,7.8v-0.6c0-6-1.3-8.4-7.2-8.4c0,0-0.6-1.8-5.4-1.8c-7.2,0-10.2,5.3-10.2,10.2v0.6
	C45.4,21.9,49.6,18.7,54.5,18.7z"/>
<path class="st5" d="M53.3,15.7c-7.2,0-10.2,5.3-10.2,10.2v4.2c3,0,3-3.6,3-3.6s7.2,1.2,12-2.4c0,0,3,6,7.8,6v-4.2
	c0-6-1.3-8.4-7.2-8.4C58.7,17.5,58.1,15.7,53.3,15.7z"/>
<path class="st5" d="M51.2,33.8h-3.3c-1.3,0-2.4-1.1-2.4-2.5v-2c0-0.6,0.4-1,1-1h6.1c0.7,0,1.2,0.5,1.2,1.2c0,0,0,0.1,0,0.1
	l-0.2,1.9C53.4,32.8,52.4,33.8,51.2,33.8z"/>
<path class="st5" d="M57.8,33.8h3.3c1.3,0,2.4-1.1,2.4-2.5v-2c0-0.6-0.4-1-1-1h-6.1c-0.7,0-1.2,0.5-1.2,1.2c0,0,0,0.1,0,0.1l0.2,1.9
	C55.6,32.8,56.6,33.8,57.8,33.8z"/>
<line class="st5" x1="53.7" y1="30.3" x2="55.3" y2="30.3"/>
<path class="st12" d="M54.5,10.8c-6.7,0-13.5,4.7-13.5,15.5h2c0-9.6,5-13,11.5-13.5C61,13.3,66,16.7,66,26.3h2
	C68,15.5,61.2,10.8,54.5,10.8z"/>
<path class="st13" d="M40.5,26.3h3c0.6,0,1,0.4,1,1v8.5c0,0.6-0.4,1-1,1h-3l0,0V26.3L40.5,26.3z"/>
<path class="st14" d="M40.5,36.8c-2.2,0-4-2.3-4-5.3s1.8-5.3,4-5.3V36.8z"/>
<path class="st15" d="M36.5,31.6c0,0.3,0,0.7,0.1,1c0.4-2.4,2-4.3,3.9-4.3v-2C38.3,26.3,36.5,28.7,36.5,31.6z"/>
<path class="st16" d="M40.5,36.8c-2.2,0-4-2.3-4-5.3s1.8-5.3,4-5.3V36.8z"/>
<path class="st13" d="M68.5,36.8h-3c-0.6,0-1-0.4-1-1v-8.5c0-0.6,0.4-1,1-1h3l0,0V36.8L68.5,36.8z"/>
<path class="st14" d="M68.5,36.8c2.2,0,4-2.3,4-5.3s-1.8-5.3-4-5.3V36.8z"/>
<path class="st15" d="M72.5,31.6c0,0.3,0,0.7-0.1,1c-0.4-2.4-2-4.3-3.9-4.3v-2C70.7,26.3,72.5,28.7,72.5,31.6z"/>
<path class="st16" d="M68.5,36.8c2.2,0,4-2.3,4-5.3s-1.8-5.3-4-5.3V36.8z"/>
<path class="st17" d="M61.5,11.6c-4.3-2.6-9.6-2.6-13.9,0c-0.8,0.6-1,1.7-0.4,2.5c0.5,0.7,1.5,1,2.3,0.5c3.1-1.9,7-1.9,10.1,0
	c0.9,0.5,2,0.1,2.4-0.8C62.4,13.1,62.2,12.2,61.5,11.6z"/>
<path class="st18" d="M54.5,11.3c2.8,0,6.9,1.2,7.6,2.7c0.4-0.8,0.1-1.8-0.7-2.3c-4.3-2.6-9.6-2.6-13.9,0c-0.8,0.5-1.1,1.5-0.6,2.4
	C47.6,12.5,51.7,11.3,54.5,11.3z"/>
<path class="st5" d="M61.5,11.6c-4.3-2.6-9.6-2.6-13.9,0c-0.8,0.6-1,1.7-0.4,2.5c0.5,0.7,1.5,1,2.3,0.5c3.1-1.9,7-1.9,10.1,0
	c0.9,0.5,2,0.1,2.4-0.8C62.4,13.1,62.2,12.2,61.5,11.6z"/>
<ellipse class="st19" cx="21.8" cy="75.3" rx="15" ry="1.5"/>
<ellipse class="st19" cx="65.3" cy="78.3" rx="19.5" ry="1.5"/>
<line class="st5" x1="64.3" y1="58.2" x2="64.3" y2="57.5"/>
<line class="st5" x1="64.3" y1="66.8" x2="64.3" y2="57.5"/>
<path class="st20" d="M10.8,71.8h21.5c0.7,0,1.3,0.6,1.3,1.3l0,0c0,0.7-0.6,1.3-1.3,1.3H10.8c-0.7,0-1.3-0.6-1.3-1.3l0,0
	C9.5,72.4,10.1,71.8,10.8,71.8z"/>
<path class="st21" d="M11.8,69.3h21.5c0.7,0,1.3,0.6,1.3,1.3l0,0c0,0.7-0.6,1.3-1.3,1.3H11.8c-0.7,0-1.3-0.6-1.3-1.3l0,0
	C10.5,69.9,11.1,69.3,11.8,69.3z"/>
<path class="st22" d="M10.8,66.8h21.5c0.7,0,1.3,0.6,1.3,1.3l0,0c0,0.7-0.6,1.3-1.3,1.3H10.8c-0.7,0-1.3-0.6-1.3-1.3l0,0
	C9.5,67.4,10.1,66.8,10.8,66.8z"/>
<path class="st7" d="M11.8,64.3h21.5c0.7,0,1.3,0.6,1.3,1.3l0,0c0,0.7-0.6,1.3-1.3,1.3H11.8c-0.7,0-1.3-0.6-1.3-1.3l0,0
	C10.5,64.9,11.1,64.3,11.8,64.3z"/>
<path class="st23" d="M59.9,74.8h-2.4l5.8-17.7c0.2-0.5,0.6-0.8,1.1-0.8h1.5"/>
<path class="st24" d="M83.4,74.8H59.9l6-18.5h21.8c0.4,0,0.8,0.2,1,0.5c0.2,0.3,0.3,0.7,0.2,1.1L83.4,74.8z"/>
<polygon class="st25" points="81.8,56.3 65.9,56.3 59.9,74.8 63.1,74.8 "/>
<path class="st26" d="M83.4,74.8H59v3h22C82.3,77.8,83.4,77,83.4,74.8z"/>
<path class="st23" d="M59,74.8H47c0,2.1,1,3,2.4,3H59V74.8z"/>
<path class="st27" d="M76.6,64.6c0-0.5,0.2-0.9,0.6-1.1c-0.2-0.4-0.6-0.6-1.1-0.6c-0.5,0-0.9,0.3-1.1,0.3s-0.6-0.3-1-0.3
	c-0.5,0-1,0.3-1.2,0.7c-0.4,1-0.3,2.1,0.4,3c0.3,0.4,0.6,0.8,0.9,0.8s0.5-0.3,1-0.3s0.6,0.3,1,0.2s0.7-0.4,0.9-0.7
	c0.2-0.3,0.3-0.5,0.4-0.8C76.9,65.6,76.6,65.1,76.6,64.6z"/>
<line class="st5" x1="75.5" y1="61.4" x2="76.1" y2="60.8"/>
<path class="st16" d="M83.4,74.8H59.9l6-18.5h21.8c0.4,0,0.8,0.2,1,0.5c0.2,0.3,0.3,0.7,0.2,1.1L83.4,74.8z"/>
<path class="st28" d="M10.5,61.8H32c0.7,0,1.3,0.6,1.3,1.3l0,0c0,0.7-0.6,1.3-1.3,1.3H10.5c-0.7,0-1.3-0.6-1.3-1.3l0,0
	C9.3,62.4,9.9,61.8,10.5,61.8z"/>
</svg>
