<?xml version="1.0" encoding="utf-8"?>
<!-- Generator: Adobe Illustrator 23.1.0, SVG Export Plug-In . SVG Version: 6.00 Build 0)  -->
<svg version="1.1" id="Capa_1" xmlns="http://www.w3.org/2000/svg" xmlns:xlink="http://www.w3.org/1999/xlink" x="0px" y="0px"
	 viewBox="0 0 500 500" style="enable-background:new 0 0 500 500;" xml:space="preserve">
<style type="text/css">
	.st0{fill:#646464;}
	.st1{fill:url(#SVGID_1_);}
	.st2{fill:url(#SVGID_2_);}
	.st3{fill:#FFFFFF;}
</style>
<g transform="translate(0 -648.207)">
	<path class="st0" d="M88.5,1070.2c0-20.1-5.9-30.5-17.8-31c-4.7-0.2-9.4,0.5-13.8,2.2c-3.6,1.2-6,2.5-7.2,3.7v48
		c7.6,4.6,14.3,6.7,20.2,6.5C82.3,1098.8,88.5,1089,88.5,1070.2L88.5,1070.2z M103.2,1071.1c0,10.2-2.5,18.7-7.5,25.5
		c-5.6,7.6-13.2,11.6-23.1,11.8c-7.4,0.2-15.1-2-22.9-6.7v43.6l-12.7-4.4v-96.9c2.1-2.5,4.8-4.6,8-6.5c7.6-4.3,16.8-6.5,27.6-6.6
		l0.2,0.2c9.9-0.1,17.5,3.8,22.8,11.8C100.6,1050.2,103.1,1059.6,103.2,1071.1L103.2,1071.1z M180.9,1099.7
		c0,13.7-1.4,23.2-4.3,28.5s-8.3,9.5-16.3,12.6c-6.5,2.5-13.5,3.8-21.1,4.1l-2.1-7.8c7.7-1,13.1-2,16.2-3c6.2-2,10.4-5.1,12.7-9.2
		c1.9-3.4,2.8-9.8,2.8-19.4v-3.2c-8.7,3.8-17.8,5.7-27.3,5.7c-6,0.1-11.9-1.9-16.5-5.7c-5.3-4.2-8-9.4-8-15.8v-51.3l12.7-4.2v51.6
		c0,5.5,1.8,9.7,5.5,12.7c3.7,3,8.4,4.4,14.3,4.3c5.9-0.1,12.1-2.3,18.7-6.6v-60.1h12.7L180.9,1099.7L180.9,1099.7z M230.6,1107.6
		l-4.2,0.2c-7.2,0-12.8-1.7-16.8-5c-4-3.3-6-7.9-6-13.8v-48.5h-8.7v-7.7h8.7v-20.6l12.7-4.4v24.9h14.3v7.7h-14.3v48.1
		c0,4.6,1.3,7.8,3.8,9.8c2.2,1.6,5.7,2.5,10.4,2.7L230.6,1107.6L230.6,1107.6z M307.6,1106.6h-12.7v-47.5c0-4.8-1.2-9-3.5-12.5
		c-2.4-3.8-6.7-6-11.2-5.9c-5.8,0-13.1,3-21.9,8.9v57h-12.7V993.1l12.7-3.9v51.7c8.1-5.7,17-8.6,26.6-8.6c6.7,0,12.2,2.2,16.4,6.6
		c4.2,4.4,6.3,9.8,6.3,16.3L307.6,1106.6L307.6,1106.6z M375.2,1068.3c0-7.7-1.5-14.1-4.5-19.2c-3.6-6.2-9.2-9.4-16.7-9.7
		c-13.9,0.8-20.9,10.4-20.9,29c0,8.5,1.4,15.6,4.4,21.3c3.7,7.3,9.3,10.8,16.8,10.7C368.2,1100.4,375.2,1089.7,375.2,1068.3
		L375.2,1068.3z M389.1,1068.4c0,11-2.9,20.2-8.7,27.5c-6.4,8.2-15.2,12.3-26.5,12.3c-11.2,0-19.9-4.2-26.1-12.3
		c-5.7-7.3-8.5-16.5-8.5-27.5c0-10.3,3.1-19,9.2-26.1c6.5-7.5,15-11.3,25.6-11.3c10.6,0,19.2,3.8,25.8,11.3
		C386.1,1049.4,389.2,1058.1,389.1,1068.4L389.1,1068.4z M462,1106.7h-12.8v-50.2c0-5.5-1.7-9.8-5.1-12.9c-3.4-3.1-8-4.6-13.7-4.5
		c-6,0.1-11.8,2-17.2,5.7v61.8h-12.7v-63.4c7.3-5.2,14.1-8.5,20.2-10.1c5.8-1.5,10.9-2.2,15.3-2.2c3,0,5.9,0.3,8.5,0.8
		c5,1.1,9.1,3.2,12.2,6.2c3.5,3.4,5.2,7.4,5.2,12.1L462,1106.7L462,1106.7z"/>
	<g transform="matrix(.343916 0 0 .336234 -217.70259 437.9201)">
		
			<linearGradient id="SVGID_1_" gradientUnits="userSpaceOnUse" x1="4094.5793" y1="804.5362" x2="3300.1248" y2="810.8529" gradientTransform="matrix(0.295 0 0 -0.2884 315.3521 1221.7057)">
			<stop  offset="0" style="stop-color:#366A96"/>
			<stop  offset="1" style="stop-color:#3679B0"/>
		</linearGradient>
		<path class="st1" d="M1079.5,771.3c0-62.8,17-97,111-113.3c63.8-11.1,145.6-12.5,221.9,0c60.3,9.8,111,54.3,111,113.3v207.3
			c0,60.8-49.2,110.6-111,110.6h-221.9c-75.3,0-138.8,63.6-138.8,135.4v99.4h-76.3c-64.5,0-102.1-46.1-117.9-110.5
			c-21.3-86.6-20.4-138.2,0-221.1c17.7-72.3,74.2-110.5,138.7-110.5h305.2v-27.7h-222L1079.5,771.3L1079.5,771.3z"/>
		
			<linearGradient id="SVGID_2_" gradientUnits="userSpaceOnUse" x1="4904.9995" y1="-0.3885" x2="3332.3853" y2="-0.3885" gradientTransform="matrix(0.295 0 0 -0.2884 315.3521 1221.7057)">
			<stop  offset="0" style="stop-color:#FFC836"/>
			<stop  offset="1" style="stop-color:#FFE873"/>
		</linearGradient>
		<path class="st2" d="M1523.3,1434.6c0,62.8-55.1,94.6-111,110.5c-84.1,23.9-151.6,20.3-221.9,0c-58.7-16.9-111-51.5-111-110.5
			v-207.3c0-59.7,50.2-110.6,111-110.6h221.9c73.9,0,138.8-63.2,138.8-138.2v-96.7h83.2c64.6,0,95,47.5,111,110.5
			c22.2,87.5,23.2,152.9,0,221.1c-22.4,66.2-46.4,110.5-111,110.5h-332.9v27.7h221.9L1523.3,1434.6L1523.3,1434.6z"/>
		<path class="st3" d="M1135,757.6c0-22.9,18.6-41.5,41.6-41.5c22.9,0,41.6,18.6,41.6,41.5c0,22.9-18.7,41.4-41.6,41.4
			C1153.6,799,1135,780.4,1135,757.6z M1384.6,1448.4c0-22.9,18.7-41.4,41.6-41.4c23,0,41.6,18.6,41.6,41.4
			c0,22.9-18.6,41.5-41.6,41.5C1403.3,1489.9,1384.6,1471.3,1384.6,1448.4z"/>
	</g>
</g>
</svg>
